<?xml version="1.0" encoding="UTF-8" standalone="no"?>
<!-- Created with Inkscape (http://www.inkscape.org/) -->

<svg
   width="48"
   height="48"
   id="svg2493"
   sodipodi:version="0.32"
   inkscape:version="1.2.2 (b0a8486541, 2022-12-01)"
   sodipodi:docname="astroberry-icon-white.svg"
   inkscape:output_extension="org.inkscape.output.svg.inkscape"
   version="1.1"
   inkscape:export-filename="/mnt/data/Astroberry_Server/v2.0.0/media/logo/icons/astroberry-512x512.png"
   inkscape:export-xdpi="40.959999"
   inkscape:export-ydpi="40.959999"
   xmlns:inkscape="http://www.inkscape.org/namespaces/inkscape"
   xmlns:sodipodi="http://sodipodi.sourceforge.net/DTD/sodipodi-0.dtd"
   xmlns="http://www.w3.org/2000/svg"
   xmlns:svg="http://www.w3.org/2000/svg"
   xmlns:rdf="http://www.w3.org/1999/02/22-rdf-syntax-ns#"
   xmlns:cc="http://creativecommons.org/ns#"
   xmlns:dc="http://purl.org/dc/elements/1.1/">
  <defs
     id="defs2495">
    <linearGradient
       id="linearGradient3764">
      <stop
         style="stop-color:#ffffb7;stop-opacity:1;"
         offset="0"
         id="stop3766" />
      <stop
         id="stop3772"
         offset="0.5"
         style="stop-color:#f4e55b;stop-opacity:1;" />
      <stop
         style="stop-color:#ea9a00;stop-opacity:1;"
         offset="1"
         id="stop3768" />
    </linearGradient>
  </defs>
  <sodipodi:namedview
     id="base"
     pagecolor="#ffffff"
     bordercolor="#666666"
     borderopacity="1.0"
     inkscape:pageopacity="0.0"
     inkscape:pageshadow="2"
     inkscape:zoom="8"
     inkscape:cx="43.9375"
     inkscape:cy="26.6875"
     inkscape:current-layer="layer1"
     showgrid="true"
     inkscape:document-units="px"
     inkscape:grid-bbox="true"
     inkscape:window-width="1920"
     inkscape:window-height="1011"
     inkscape:window-x="0"
     inkscape:window-y="0"
     inkscape:window-maximized="1"
     inkscape:showpageshadow="2"
     inkscape:pagecheckerboard="0"
     inkscape:deskcolor="#d1d1d1" />
  <metadata
     id="metadata2498">
    <rdf:RDF>
      <cc:Work
         rdf:about="">
        <dc:format>image/svg+xml</dc:format>
        <dc:type
           rdf:resource="http://purl.org/dc/dcmitype/StillImage" />
      </cc:Work>
    </rdf:RDF>
  </metadata>
  <g
     inkscape:groupmode="layer"
     id="layer3"
     inkscape:label="Layer 2"
     transform="translate(0,-152)" />
  <g
     id="layer1"
     inkscape:label="Layer 1"
     inkscape:groupmode="layer"
     transform="translate(0,-16)">
    <g
       id="g871">
      <g
         transform="matrix(0.47364902,0,0,0.47364902,-20.490935,-2.4545168)"
         id="g108">
        <g
           id="XMLID_1608_"
           transform="matrix(0.125,0,0,0.125,44.205625,40.018063)">
          <path
             id="XMLID_1609_"
             style="fill:#91dc5a"
             d="m 239.228,31.365 c 0,0 -28.378,-5.672 -52.737,6.117 C 176.53,14.842 155.354,0 155.354,0 c 0,0 -21.429,14.305 -31.314,37.395 -24.319,-11.676 -52.558,-6.029 -52.558,-6.029 0,0 -7.682,43.532 17.07,68.285 19.21,19.209 49.726,18.885 62.431,17.776 2.665,2.146 4.371,3.284 4.371,3.284 0,0 1.647,-1.156 4.225,-3.297 12.617,1.118 43.294,1.52 62.579,-17.764 24.752,-24.753 17.07,-68.285 17.07,-68.285 z"
             inkscape:connector-curvature="0" />
          <path
             id="XMLID_1610_"
             style="fill:#64c37d"
             d="m 155.354,0 c 0,0 -21.429,14.305 -31.314,37.395 -24.319,-11.676 -52.558,-6.029 -52.558,-6.029 0,0 -7.682,43.532 17.07,68.285 19.21,19.209 49.726,18.885 62.431,17.776 2.665,2.146 4.371,3.284 4.371,3.284 z"
             inkscape:connector-curvature="0" />
        </g>
      </g>
      <g
         id="g4"
         style="fill:#ffffff;stroke:#000000;stroke-opacity:1;fill-opacity:1;stroke-width:0.59127784;stroke-dasharray:none"
         transform="matrix(0.16912523,0,0,0.16912523,2.2910862,20.082172)">
        <path
           inkscape:connector-curvature="0"
           id="path2"
           d="m 64.518,128.375 c 0,35.203 28.655,63.827 63.857,63.827 9.491,0 18.472,-2.133 26.582,-5.857 -0.571,-2.133 -0.901,-4.325 -0.901,-6.638 0,-13.817 11.174,-25.02 24.99,-25.02 2.433,0 4.746,0.36 6.938,0.991 3.965,-8.29 6.248,-17.541 6.248,-27.303 0,-35.233 -28.655,-63.857 -63.857,-63.857 -35.202,0 -63.857,28.625 -63.857,63.857 z m 143.514,0 c 0,13.126 -3.274,25.501 -8.921,36.434 3.094,4.175 4.956,9.311 4.956,14.898 0,13.817 -11.204,25.02 -25.02,25.02 -5.707,0 -10.963,-1.952 -15.168,-5.166 -10.723,5.346 -22.738,8.44 -35.503,8.44 -43.913,0 -79.656,-35.713 -79.656,-79.626 0,-43.943 35.743,-79.656 79.656,-79.656 43.913,0 79.656,35.713 79.656,79.656 z"
           style="fill:#ffffff;stroke:#000000;stroke-opacity:1;fill-opacity:1;stroke-width:0.59127784;stroke-dasharray:none" />
      </g>
      <g
         id="g12"
         style="fill:#ffffff;stroke:#000000;stroke-opacity:1;fill-opacity:1;stroke-width:0.59127784;stroke-dasharray:none"
         transform="matrix(0.16912523,0,0,0.16912523,2.2910862,20.082172)">
        <path
           inkscape:connector-curvature="0"
           id="path10"
           d="m 128.375,148.109 c 10.873,0 19.734,-8.861 19.734,-19.734 0,-10.903 -8.861,-19.764 -19.734,-19.764 -10.903,0 -19.764,8.861 -19.764,19.764 0,10.874 8.861,19.734 19.764,19.734 z m 0,-55.297 c 19.584,0 35.533,15.949 35.533,35.563 0,19.584 -15.949,35.533 -35.533,35.533 -19.614,0 -35.563,-15.949 -35.563,-35.533 0,-19.613 15.95,-35.563 35.563,-35.563 z"
           style="fill:#ffffff;stroke:#000000;stroke-opacity:1;fill-opacity:1;stroke-width:0.59127784;stroke-dasharray:none" />
      </g>
      <path
         inkscape:connector-curvature="0"
         id="path18"
         d="m 9.6417761,30.993794 c 2.1487359,0 3.8963069,-1.747571 3.8963069,-3.896307 0,-2.148737 -1.747571,-3.896308 -3.8963069,-3.896308 -2.1487361,0 -3.8963071,1.747571 -3.8963071,3.896308 0,2.148736 1.7474019,3.896307 3.8963071,3.896307 z M 24.002538,20.082172 c 11.968316,0 21.706377,9.738231 21.706377,21.711451 0,11.968316 -9.73823,21.706378 -21.706377,21.706378 C 12.029317,63.50017 2.2910862,53.761939 2.2910862,41.793623 c 0,-3.693018 0.9296814,-7.167696 2.5652915,-10.210597 -1.1023583,-1.178465 -1.7829182,-2.75319 -1.7829182,-4.485539 0,-3.621986 2.9463306,-6.568317 6.5683166,-6.568317 1.7932349,0 3.4186969,0.721319 4.6024049,1.889805 2.936183,-1.488471 6.248162,-2.336803 9.758357,-2.336803 z m 19.034537,21.711451 c 0,-10.50014 -8.539302,-19.039441 -19.034368,-19.039441 -2.961552,0 -5.770722,0.680729 -8.270055,1.894879 0.304764,0.756835 0.477441,1.584872 0.477441,2.448595 0,3.621986 -2.946331,6.568316 -6.5683169,6.568316 -0.9195339,0 -1.7881611,-0.192972 -2.5857557,-0.533421 -1.3310155,2.600977 -2.0929247,5.542234 -2.0929247,8.661242 0,10.495066 8.5393023,19.034368 19.0394423,19.034368 10.495066,0 19.034537,-8.539471 19.034537,-19.034538 z"
         style="fill:#ffffff;stroke-width:0.1;fill-opacity:1;stroke:#000000;stroke-opacity:1;stroke-dasharray:none" />
      <g
         id="g3817"
         transform="matrix(0.39470752,0,0,0.39470752,-15.542289,54.955692)">
        <path
           id="path26"
           style="fill:#aa0000;stroke-width:4.74067"
           sodipodi:type="arc"
           sodipodi:cx="-70.546036"
           sodipodi:cy="-63.903236"
           sodipodi:rx="10.056475"
           sodipodi:ry="10.056475"
           sodipodi:start="0"
           sodipodi:end="3.1415927"
           sodipodi:open="true"
           d="m -60.489561,-63.903236 a 10.056475,10.056475 0 0 1 -5.028238,8.709162 10.056475,10.056475 0 0 1 -10.056474,0 10.056475,10.056475 0 0 1 -5.028237,-8.709162"
           transform="rotate(90)"
           sodipodi:arc-type="arc" />
        <path
           d="m 80.602747,63.898888 a 10.056475,10.056475 0 0 1 -5.028238,8.709162 10.056475,10.056475 0 0 1 -10.056474,0 10.056475,10.056475 0 0 1 -5.028237,-8.709162"
           sodipodi:open="true"
           sodipodi:end="3.1415927"
           sodipodi:start="0"
           sodipodi:ry="10.056475"
           sodipodi:rx="10.056475"
           sodipodi:cy="63.898888"
           sodipodi:cx="70.546272"
           sodipodi:type="arc"
           style="fill:#ff2a2a;stroke-width:4.74067"
           id="path3813"
           transform="rotate(-90)"
           sodipodi:arc-type="arc" />
      </g>
    </g>
  </g>
</svg>
